# xmcd CD database file
#
# Track frame offsets:
#	150
#	23885
#	42077
#	80637
#	112677
#	137062
#	160425
#	185195
#	203627
#	226017
#	257667
#	281995
#
# Disc length: 4089 seconds
#
# Revision: 8
# Processed by: cddbd v1.5.2PL0 Copyright (c) Steve Scherf et al.
# Submitted via: CDex 1.70beta2
#
DISCID=a20ff70c
DTITLE=Various Jazz Artists - Nu Cool [CD1)    1999 Jazz FM
DYEAR=1999
DGENRE=Jazz
TTITLE0=Nuyorican Soul - I Am The Black Gold Of The Sun
TTITLE1=Camelle Hinds - Saulsalito Calling
TTITLE2=Jamiroquai - Blow Your Mind
TTITLE3=Niteflyte - Coast To Coast (Ext. Club Mix)
TTITLE4=Hit The Boom - Here Comes The Sun
TTITLE5=Blacknuss - Roll With Me
TTITLE6=Driza Bone - The Last Time
TTITLE7=Soundscape UK - I'll Be Around
TTITLE8=S-Tone Inc - Time
TTITLE9=Down To The Bone - Staten Island Groove
TTITLE10=The Quiet Boys - Everybody Loves The Sunshine
TTITLE11=Freedom Or Not - In The City
EXTD=YEAR: 1999
EXTT0=
EXTT1=
EXTT2=
EXTT3=
EXTT4=
EXTT5=
EXTT6=
EXTT7=
EXTT8=
EXTT9=
EXTT10=
EXTT11=
PLAYORDER=
